<svg width="512" height="512" viewBox="0 0 512 512" fill="none" xmlns="http://www.w3.org/2000/svg">
<g clip-path="url(#clip0_432_514)">
<path d="M281.39 10.209C309.054 10.2828 323.094 10.4303 335.217 10.7746L339.988 10.9467C345.496 11.1434 350.93 11.3893 357.496 11.6844C383.66 12.9139 401.512 17.045 417.176 23.1187C433.405 29.3646 447.077 37.8236 460.749 51.471C473.258 63.7594 482.934 78.63 489.102 95.0445C495.175 110.708 499.306 128.561 500.536 154.749C500.831 161.29 501.077 166.724 501.274 172.257L501.421 177.028C501.79 189.126 501.938 203.167 501.987 230.83L502.011 249.175V281.387C502.071 299.324 501.883 317.26 501.446 335.19L501.298 339.961C501.102 345.494 500.856 350.928 500.561 357.469C499.331 383.657 495.151 401.485 489.102 417.173C482.934 433.588 473.258 448.459 460.749 460.747C448.461 473.256 433.59 482.932 417.176 489.099C401.512 495.173 383.66 499.304 357.496 500.534L339.988 501.271L335.217 501.419C323.094 501.763 309.054 501.935 281.39 501.984L263.046 502.009H230.857C212.913 502.072 194.969 501.884 177.03 501.443L172.259 501.296C166.422 501.075 160.586 500.821 154.751 500.534C128.588 499.304 110.735 495.173 95.0468 489.099C78.6411 482.928 63.7792 473.253 51.4979 460.747C38.9802 448.461 29.2958 433.59 23.121 417.173C17.0473 401.51 12.9162 383.657 11.6867 357.469L10.949 339.961L10.826 335.19C10.3727 317.26 10.1678 299.324 10.2113 281.387V230.83C10.1432 212.895 10.3235 194.958 10.7522 177.028L10.9244 172.257C11.1211 166.724 11.367 161.29 11.6621 154.749C12.8916 128.561 17.0227 110.733 23.0964 95.0445C29.2856 78.6232 38.987 63.7521 51.5225 51.471C63.7966 38.9682 78.6498 29.2926 95.0468 23.1187C110.735 17.045 128.563 12.9139 154.751 11.6844C161.292 11.3893 166.751 11.1434 172.259 10.9467L177.03 10.7991C194.961 10.3622 212.897 10.1737 230.833 10.2336L281.39 10.209ZM256.111 133.159C223.503 133.159 192.23 146.113 169.173 169.17C146.115 192.228 133.161 223.501 133.161 256.109C133.161 288.717 146.115 319.99 169.173 343.048C192.23 366.105 223.503 379.059 256.111 379.059C288.72 379.059 319.992 366.105 343.05 343.048C366.108 319.99 379.061 288.717 379.061 256.109C379.061 223.501 366.108 192.228 343.05 169.17C319.992 146.113 288.72 133.159 256.111 133.159ZM256.111 182.339C265.799 182.337 275.392 184.244 284.343 187.95C293.294 191.655 301.427 197.088 308.278 203.937C315.129 210.786 320.565 218.917 324.273 227.867C327.982 236.817 329.892 246.409 329.894 256.097C329.895 265.784 327.989 275.377 324.283 284.328C320.577 293.279 315.145 301.412 308.296 308.264C301.447 315.115 293.315 320.55 284.366 324.259C275.416 327.968 265.823 329.877 256.136 329.879C236.571 329.879 217.807 322.107 203.973 308.272C190.138 294.438 182.366 275.674 182.366 256.109C182.366 236.544 190.138 217.78 203.973 203.946C217.807 190.111 236.571 182.339 256.136 182.339M385.233 96.274C377.081 96.274 369.263 99.5124 363.499 105.277C357.734 111.041 354.496 118.859 354.496 127.011C354.496 135.164 357.734 142.982 363.499 148.746C369.263 154.511 377.081 157.749 385.233 157.749C393.385 157.749 401.204 154.511 406.968 148.746C412.733 142.982 415.971 135.164 415.971 127.011C415.971 118.859 412.733 111.041 406.968 105.277C401.204 99.5124 393.385 96.274 385.233 96.274Z" fill="white"/>
</g>
<defs>
<clipPath id="clip0_432_514">
<rect width="512" height="512" fill="white"/>
</clipPath>
</defs>
</svg>
