<svg width="512" height="512" viewBox="0 0 512 512" fill="none" xmlns="http://www.w3.org/2000/svg">
<g clip-path="url(#clip0_432_517)">
<path d="M114.062 76.3774C114.055 89.9983 108.638 103.059 99.0014 112.685C89.3652 122.312 76.2995 127.716 62.6786 127.709C49.0577 127.703 35.9974 122.285 26.3708 112.649C16.7442 103.013 11.3399 89.9469 11.3467 76.3261C11.3535 62.7052 16.7709 49.6449 26.4071 40.0183C36.0434 30.3917 49.1091 24.9873 62.7299 24.9941C76.3508 25.001 89.4111 30.4184 99.0377 40.0546C108.664 49.6908 114.069 62.7565 114.062 76.3774ZM115.603 165.74H12.8874V487.238H115.603V165.74ZM277.892 165.74H175.691V487.238H276.865V318.528C276.865 224.544 399.353 215.813 399.353 318.528V487.238H500.784V283.605C500.784 125.167 319.492 131.073 276.865 208.88L277.892 165.74Z" fill="white"/>
</g>
<defs>
<clipPath id="clip0_432_517">
<rect width="512" height="512" fill="white"/>
</clipPath>
</defs>
</svg>
