<svg width="182" height="65" viewBox="0 0 182 65" fill="none" xmlns="http://www.w3.org/2000/svg">
<path d="M96.3595 19.5767H91.0412L90.1612 22.1211H87.349L92.1508 8.7487H95.2691L100.071 22.1211H97.2396L96.3595 19.5767ZM95.6326 17.4341L93.7004 11.8479L91.7682 17.4341H95.6326ZM111.603 12.9001C111.603 13.6143 111.431 14.2839 111.087 14.9088C110.755 15.5337 110.226 16.0375 109.499 16.4201C108.785 16.8027 107.879 16.9941 106.782 16.9941H104.544V22.1211H101.866V8.76783H106.782C107.815 8.76783 108.695 8.94639 109.422 9.30349C110.149 9.6606 110.691 10.1516 111.049 10.7766C111.418 11.4015 111.603 12.1093 111.603 12.9001ZM106.668 14.8323C107.407 14.8323 107.956 14.6665 108.313 14.3349C108.67 13.9905 108.848 13.5123 108.848 12.9001C108.848 11.5992 108.122 10.9487 106.668 10.9487H104.544V14.8323H106.668ZM123.242 12.9001C123.242 13.6143 123.07 14.2839 122.726 14.9088C122.394 15.5337 121.865 16.0375 121.138 16.4201C120.424 16.8027 119.518 16.9941 118.421 16.9941H116.183V22.1211H113.505V8.76783H118.421C119.455 8.76783 120.335 8.94639 121.062 9.30349C121.788 9.6606 122.331 10.1516 122.688 10.7766C123.057 11.4015 123.242 12.1093 123.242 12.9001ZM118.307 14.8323C119.046 14.8323 119.595 14.6665 119.952 14.3349C120.309 13.9905 120.488 13.5123 120.488 12.9001C120.488 11.5992 119.761 10.9487 118.307 10.9487H116.183V14.8323H118.307ZM127.822 19.9976H132.222V22.1211H125.144V8.76783H127.822V19.9976ZM140.123 22.255C138.873 22.255 137.725 21.9617 136.68 21.375C135.634 20.7883 134.805 19.9785 134.193 18.9454C133.58 17.8996 133.274 16.7198 133.274 15.4062C133.274 14.1053 133.58 12.9383 134.193 11.9053C134.805 10.8595 135.634 10.0432 136.68 9.45654C137.725 8.86986 138.873 8.57653 140.123 8.57653C141.386 8.57653 142.534 8.86986 143.567 9.45654C144.612 10.0432 145.435 10.8595 146.034 11.9053C146.647 12.9383 146.953 14.1053 146.953 15.4062C146.953 16.7198 146.647 17.8996 146.034 18.9454C145.435 19.9785 144.612 20.7883 143.567 21.375C142.521 21.9617 141.373 22.255 140.123 22.255ZM140.123 19.8637C140.927 19.8637 141.634 19.6851 142.247 19.328C142.859 18.9581 143.337 18.4352 143.681 17.7593C144.026 17.0833 144.198 16.299 144.198 15.4062C144.198 14.5134 144.026 13.7354 143.681 13.0723C143.337 12.3963 142.859 11.8798 142.247 11.5227C141.634 11.1656 140.927 10.987 140.123 10.987C139.32 10.987 138.605 11.1656 137.98 11.5227C137.368 11.8798 136.89 12.3963 136.546 13.0723C136.201 13.7354 136.029 14.5134 136.029 15.4062C136.029 16.299 136.201 17.0833 136.546 17.7593C136.89 18.4352 137.368 18.9581 137.98 19.328C138.605 19.6851 139.32 19.8637 140.123 19.8637ZM159.563 8.76783L155.048 17.4723V22.1211H152.37V17.4723L147.836 8.76783H150.858L153.728 14.8705L156.578 8.76783H159.563ZM163.786 10.9296V14.2775H168.282V16.401H163.786V19.9402H168.856V22.1211H161.108V8.7487H168.856V10.9296H163.786ZM173.968 10.9296V14.2775H178.463V16.401H173.968V19.9402H179.037V22.1211H171.289V8.7487H179.037V10.9296H173.968ZM87.5211 34.4253C87.5211 33.1117 87.8145 31.9383 88.4012 30.9053C89.0006 29.8595 89.8105 29.0496 90.8308 28.4757C91.8638 27.889 93.018 27.5957 94.2934 27.5957C95.7856 27.5957 97.0929 27.9783 98.2152 28.7435C99.3376 29.5087 100.122 30.5673 100.568 31.9192H97.4883C97.1822 31.2815 96.7485 30.8032 96.1874 30.4844C95.639 30.1656 95.0013 30.0061 94.2743 30.0061C93.4963 30.0061 92.8012 30.1911 92.189 30.5609C91.5896 30.918 91.1177 31.4282 90.7734 32.0914C90.4418 32.7546 90.276 33.5326 90.276 34.4253C90.276 35.3053 90.4418 36.0833 90.7734 36.7593C91.1177 37.4225 91.5896 37.939 92.189 38.3089C92.8012 38.666 93.4963 38.8445 94.2743 38.8445C95.0013 38.8445 95.639 38.6851 96.1874 38.3663C96.7485 38.0347 97.1822 37.55 97.4883 36.9123H100.568C100.122 38.277 99.3376 39.3419 98.2152 40.1072C97.1056 40.8596 95.7984 41.2359 94.2934 41.2359C93.018 41.2359 91.8638 40.9489 90.8308 40.375C89.8105 39.7883 89.0006 38.9785 88.4012 37.9454C87.8145 36.9123 87.5211 35.739 87.5211 34.4253ZM107.562 41.2933C106.542 41.2933 105.624 41.0701 104.807 40.6237C103.991 40.1646 103.347 39.5205 102.875 38.6915C102.416 37.8625 102.186 36.906 102.186 35.8219C102.186 34.7378 102.422 33.7813 102.894 32.9523C103.379 32.1233 104.036 31.4856 104.865 31.0392C105.694 30.5801 106.618 30.3505 107.639 30.3505C108.659 30.3505 109.584 30.5801 110.413 31.0392C111.242 31.4856 111.892 32.1233 112.364 32.9523C112.849 33.7813 113.091 34.7378 113.091 35.8219C113.091 36.906 112.842 37.8625 112.345 38.6915C111.86 39.5205 111.197 40.1646 110.355 40.6237C109.526 41.0701 108.595 41.2933 107.562 41.2933ZM107.562 38.9593C108.047 38.9593 108.499 38.8445 108.92 38.615C109.354 38.3726 109.698 38.0155 109.953 37.5436C110.209 37.0718 110.336 36.4978 110.336 35.8219C110.336 34.8143 110.068 34.0427 109.533 33.5071C109.01 32.9586 108.366 32.6844 107.6 32.6844C106.835 32.6844 106.191 32.9586 105.668 33.5071C105.158 34.0427 104.903 34.8143 104.903 35.8219C104.903 36.8294 105.152 37.6074 105.649 38.1558C106.159 38.6915 106.797 38.9593 107.562 38.9593ZM114.367 35.7836C114.367 34.7123 114.577 33.7621 114.998 32.9331C115.432 32.1041 116.012 31.4664 116.739 31.0201C117.479 30.5737 118.301 30.3505 119.207 30.3505C119.998 30.3505 120.686 30.5099 121.273 30.8288C121.872 31.1476 122.351 31.5493 122.708 32.034V30.5227H125.405V41.1211H122.708V39.5715C122.363 40.0689 121.885 40.4834 121.273 40.815C120.674 41.1338 119.978 41.2933 119.188 41.2933C118.295 41.2933 117.479 41.0637 116.739 40.6046C116.012 40.1454 115.432 39.5014 114.998 38.6724C114.577 37.8306 114.367 36.8677 114.367 35.7836ZM122.708 35.8219C122.708 35.1714 122.58 34.6166 122.325 34.1575C122.07 33.6856 121.726 33.3285 121.292 33.0862C120.859 32.8311 120.393 32.7036 119.896 32.7036C119.398 32.7036 118.939 32.8247 118.518 33.067C118.097 33.3094 117.753 33.6665 117.485 34.1384C117.23 34.5975 117.103 35.1459 117.103 35.7836C117.103 36.4213 117.23 36.9825 117.485 37.4671C117.753 37.939 118.097 38.3025 118.518 38.5576C118.952 38.8127 119.411 38.9402 119.896 38.9402C120.393 38.9402 120.859 38.819 121.292 38.5767C121.726 38.3216 122.07 37.9645 122.325 37.5054C122.58 37.0335 122.708 36.4723 122.708 35.8219ZM127.332 35.8219C127.332 34.725 127.556 33.7685 128.002 32.9523C128.448 32.1233 129.067 31.4856 129.858 31.0392C130.648 30.5801 131.554 30.3505 132.574 30.3505C133.888 30.3505 134.972 30.6821 135.826 31.3453C136.694 31.9957 137.274 32.914 137.567 34.1001H134.679C134.526 33.641 134.264 33.2839 133.894 33.0288C133.537 32.761 133.091 32.627 132.555 32.627C131.79 32.627 131.184 32.9076 130.738 33.4688C130.291 34.0172 130.068 34.8016 130.068 35.8219C130.068 36.8294 130.291 37.6138 130.738 38.175C131.184 38.7234 131.79 38.9976 132.555 38.9976C133.639 38.9976 134.347 38.5129 134.679 37.5436H137.567C137.274 38.6915 136.694 39.6034 135.826 40.2793C134.959 40.9553 133.875 41.2933 132.574 41.2933C131.554 41.2933 130.648 41.0701 129.858 40.6237C129.067 40.1646 128.448 39.5269 128.002 38.7106C127.556 37.8816 127.332 36.9187 127.332 35.8219ZM145.498 30.3696C146.302 30.3696 147.016 30.5482 147.641 30.9053C148.266 31.2496 148.75 31.7662 149.095 32.4549C149.452 33.1308 149.63 33.9471 149.63 34.9036V41.1211H146.952V35.2671C146.952 34.4253 146.742 33.7813 146.321 33.3349C145.9 32.8757 145.326 32.6462 144.599 32.6462C143.859 32.6462 143.273 32.8757 142.839 33.3349C142.418 33.7813 142.208 34.4253 142.208 35.2671V41.1211H139.529V26.9643H142.208V31.8427C142.552 31.3835 143.011 31.0264 143.585 30.7714C144.159 30.5035 144.797 30.3696 145.498 30.3696ZM153.536 29.26C153.064 29.26 152.668 29.1134 152.35 28.82C152.043 28.5139 151.89 28.1377 151.89 27.6913C151.89 27.2449 152.043 26.8751 152.35 26.5817C152.668 26.2756 153.064 26.1226 153.536 26.1226C154.008 26.1226 154.397 26.2756 154.703 26.5817C155.021 26.8751 155.181 27.2449 155.181 27.6913C155.181 28.1377 155.021 28.5139 154.703 28.82C154.397 29.1134 154.008 29.26 153.536 29.26ZM154.856 30.5227V41.1211H152.177V30.5227H154.856ZM163.375 30.3696C164.638 30.3696 165.658 30.7714 166.436 31.5749C167.214 32.3656 167.603 33.4752 167.603 34.9036V41.1211H164.925V35.2671C164.925 34.4253 164.714 33.7813 164.293 33.3349C163.872 32.8757 163.298 32.6462 162.572 32.6462C161.832 32.6462 161.245 32.8757 160.811 33.3349C160.391 33.7813 160.18 34.4253 160.18 35.2671V41.1211H157.502V30.5227H160.18V31.8427C160.537 31.3835 160.99 31.0264 161.538 30.7714C162.1 30.5035 162.712 30.3696 163.375 30.3696ZM174.301 30.3505C175.092 30.3505 175.787 30.5099 176.386 30.8288C176.986 31.1348 177.458 31.5366 177.802 32.034V30.5227H180.5V41.1976C180.5 42.1797 180.302 43.0533 179.906 43.8185C179.511 44.5965 178.918 45.2087 178.127 45.6551C177.337 46.1142 176.38 46.3438 175.258 46.3438C173.753 46.3438 172.516 45.9931 171.546 45.2916C170.59 44.5901 170.048 43.6336 169.92 42.422H172.579C172.72 42.9066 173.019 43.2892 173.479 43.5698C173.95 43.8632 174.518 44.0098 175.181 44.0098C175.959 44.0098 176.591 43.7739 177.075 43.302C177.56 42.8429 177.802 42.1414 177.802 41.1976V39.5524C177.458 40.0498 176.979 40.4643 176.367 40.7959C175.768 41.1275 175.079 41.2933 174.301 41.2933C173.408 41.2933 172.592 41.0637 171.852 40.6046C171.113 40.1454 170.526 39.5014 170.092 38.6724C169.672 37.8306 169.461 36.8677 169.461 35.7836C169.461 34.7123 169.672 33.7621 170.092 32.9331C170.526 32.1041 171.106 31.4664 171.833 31.0201C172.573 30.5737 173.396 30.3505 174.301 30.3505ZM177.802 35.8219C177.802 35.1714 177.675 34.6166 177.42 34.1575C177.164 33.6856 176.82 33.3285 176.386 33.0862C175.953 32.8311 175.487 32.7036 174.99 32.7036C174.492 32.7036 174.033 32.8247 173.612 33.067C173.192 33.3094 172.847 33.6665 172.579 34.1384C172.324 34.5975 172.197 35.1459 172.197 35.7836C172.197 36.4213 172.324 36.9825 172.579 37.4671C172.847 37.939 173.192 38.3025 173.612 38.5576C174.046 38.8127 174.505 38.9402 174.99 38.9402C175.487 38.9402 175.953 38.819 176.386 38.5767C176.82 38.3216 177.164 37.9645 177.42 37.5054C177.675 37.0335 177.802 36.4723 177.802 35.8219ZM97.9091 51.9001C97.9091 52.6143 97.737 53.2839 97.3926 53.9088C97.061 54.5337 96.5317 55.0375 95.8048 55.4201C95.0905 55.8027 94.185 55.9941 93.0882 55.9941H90.8499V61.1211H88.1716V47.7678H93.0882C94.1212 47.7678 95.0013 47.9464 95.7282 48.3035C96.4552 48.6606 96.9972 49.1516 97.3543 49.7766C97.7242 50.4015 97.9091 51.1093 97.9091 51.9001ZM92.9734 53.8323C93.7131 53.8323 94.2615 53.6665 94.6186 53.3349C94.9758 52.9905 95.1543 52.5123 95.1543 51.9001C95.1543 50.5992 94.4273 49.9487 92.9734 49.9487H90.8499V53.8323H92.9734ZM104.517 61.2933C103.497 61.2933 102.578 61.0701 101.762 60.6237C100.946 60.1646 100.302 59.5205 99.8298 58.6915C99.3707 57.8625 99.1411 56.906 99.1411 55.8219C99.1411 54.7378 99.3771 53.7813 99.849 52.9523C100.334 52.1233 100.99 51.4856 101.819 51.0392C102.648 50.5801 103.573 50.3505 104.593 50.3505C105.614 50.3505 106.538 50.5801 107.367 51.0392C108.196 51.4856 108.847 52.1233 109.319 52.9523C109.803 53.7813 110.046 54.7378 110.046 55.8219C110.046 56.906 109.797 57.8625 109.3 58.6915C108.815 59.5205 108.152 60.1646 107.31 60.6237C106.481 61.0701 105.55 61.2933 104.517 61.2933ZM104.517 58.9593C105.002 58.9593 105.454 58.8445 105.875 58.615C106.309 58.3726 106.653 58.0155 106.908 57.5436C107.163 57.0718 107.291 56.4978 107.291 55.8219C107.291 54.8143 107.023 54.0427 106.487 53.5071C105.964 52.9586 105.32 52.6844 104.555 52.6844C103.79 52.6844 103.146 52.9586 102.623 53.5071C102.113 54.0427 101.858 54.8143 101.858 55.8219C101.858 56.8294 102.106 57.6074 102.604 58.1558C103.114 58.6915 103.752 58.9593 104.517 58.9593ZM114.689 52.1679C115.033 51.6067 115.479 51.1667 116.028 50.8479C116.589 50.529 117.227 50.3696 117.941 50.3696V53.1818H117.233C116.391 53.1818 115.754 53.3795 115.32 53.7749C114.899 54.1703 114.689 54.859 114.689 55.841V61.1211H112.01V50.5227H114.689V52.1679ZM122.863 52.7227V57.8497C122.863 58.2068 122.946 58.4683 123.112 58.6341C123.29 58.7871 123.584 58.8637 123.992 58.8637H125.235V61.1211H123.552C121.294 61.1211 120.166 60.0243 120.166 57.8306V52.7227H118.903V50.5227H120.166V47.9017H122.863V50.5227H125.235V52.7227H122.863ZM126.473 55.7836C126.473 54.7123 126.683 53.7621 127.104 52.9331C127.538 52.1041 128.118 51.4664 128.845 51.0201C129.585 50.5737 130.408 50.3505 131.313 50.3505C132.104 50.3505 132.793 50.5099 133.379 50.8288C133.979 51.1476 134.457 51.5493 134.814 52.034V50.5227H137.511V61.1211H134.814V59.5715C134.47 60.0689 133.991 60.4834 133.379 60.815C132.78 61.1338 132.085 61.2933 131.294 61.2933C130.401 61.2933 129.585 61.0637 128.845 60.6046C128.118 60.1454 127.538 59.5014 127.104 58.6724C126.683 57.8306 126.473 56.8677 126.473 55.7836ZM134.814 55.8219C134.814 55.1714 134.686 54.6166 134.431 54.1575C134.176 53.6856 133.832 53.3285 133.398 53.0862C132.965 52.8311 132.499 52.7036 132.002 52.7036C131.504 52.7036 131.045 52.8247 130.624 53.067C130.203 53.3094 129.859 53.6665 129.591 54.1384C129.336 54.5975 129.209 55.1459 129.209 55.7836C129.209 56.4213 129.336 56.9825 129.591 57.4671C129.859 57.939 130.203 58.3025 130.624 58.5576C131.058 58.8127 131.517 58.9402 132.002 58.9402C132.499 58.9402 132.965 58.819 133.398 58.5767C133.832 58.3216 134.176 57.9645 134.431 57.5054C134.686 57.0335 134.814 56.4723 134.814 55.8219ZM142.806 46.9643V61.1211H140.127V46.9643H142.806Z" fill="white"/>
<path d="M47.959 12.8099L40.8462 0.485921C40.674 0.187481 40.3527 0 40.0045 0H25.775C25.4268 0 25.1093 0.183655 24.9333 0.485921L17.8166 12.8099C17.6445 13.1084 17.6445 13.4795 17.8166 13.7818L24.9333 26.1058C25.1054 26.4043 25.4268 26.5917 25.775 26.5917H40.0045C40.3527 26.5917 40.6702 26.4081 40.8462 26.1058L47.9629 13.7818C48.135 13.4833 48.135 13.1122 47.9629 12.8099H47.959Z" fill="white"/>
<path d="M54.9077 40.4618L49.0461 30.3072C48.8739 30.0088 48.5525 29.8213 48.2043 29.8213H36.481C36.1328 29.8213 35.8152 30.0049 35.6392 30.3072L29.7776 40.4618C29.6054 40.7602 29.6054 41.1314 29.7776 41.4337L35.6392 51.5883C35.8114 51.8867 36.1328 52.0742 36.481 52.0742H48.2043C48.5525 52.0742 48.8701 51.8905 49.0461 51.5883L54.9077 41.4337C55.0799 41.1352 55.0799 40.7641 54.9077 40.4618Z" fill="white"/>
<path d="M29.1396 34.0147L27.0276 30.3531C26.8554 30.0547 26.534 29.8672 26.1858 29.8672H21.9579C21.6097 29.8672 21.2922 30.0508 21.1162 30.3531L19.0041 34.0147C18.832 34.3132 18.832 34.6843 19.0041 34.9866L21.1162 38.6482C21.2883 38.9466 21.6097 39.1341 21.9579 39.1341H26.1858C26.534 39.1341 26.8516 38.9505 27.0276 38.6482L29.1396 34.9866C29.3118 34.6881 29.3118 34.317 29.1396 34.0147Z" fill="white"/>
<path d="M20.0863 24.8354L15.5179 16.9229C15.3457 16.6245 15.0243 16.437 14.6761 16.437H5.53931C5.19113 16.437 4.87356 16.6207 4.69756 16.9229L0.129133 24.8354C-0.0430442 25.1339 -0.0430442 25.505 0.129133 25.8073L4.69756 33.7197C4.86973 34.0182 5.19113 34.2056 5.53931 34.2056H14.6761C15.0243 34.2056 15.3419 34.022 15.5179 33.7197L20.0863 25.8073C20.2585 25.5088 20.2585 25.1377 20.0863 24.8354Z" fill="white"/>
<path d="M20.9332 44.2726L16.9616 37.3931C16.7895 37.0947 16.4681 36.9072 16.1199 36.9072H8.1768C7.82862 36.9072 7.51105 37.0909 7.33505 37.3931L3.36351 44.2726C3.19133 44.571 3.19133 44.9421 3.36351 45.2444L7.33505 52.1238C7.50723 52.4223 7.82862 52.6097 8.1768 52.6097H16.1199C16.4681 52.6097 16.7856 52.4261 16.9616 52.1238L20.9332 45.2444C21.1054 44.946 21.1054 44.5748 20.9332 44.2726Z" fill="white"/>
<path d="M31.1065 51.4008L28.9753 47.7507C28.8031 47.4522 28.4817 47.2686 28.1374 47.2686H28.1335L23.9056 47.2877C23.5575 47.2877 23.2399 47.4752 23.0677 47.7774L20.971 51.4467C20.7988 51.749 20.8026 52.1163 20.9748 52.4186L23.106 56.0687C23.2782 56.3671 23.5995 56.5508 23.9439 56.5508H23.9477L28.1756 56.5317C28.5238 56.5317 28.8414 56.3442 29.0135 56.0419L31.1103 52.3726C31.2825 52.0704 31.2786 51.7031 31.1065 51.4008Z" fill="white"/>
<path d="M67.3574 52.139C69.8521 52.139 71.8723 50.1188 71.8723 47.6241C71.8723 46.8666 71.6848 46.1511 71.3519 45.5236L72.1478 44.6704C72.6605 44.1194 72.7906 43.2738 72.4653 42.5775L72.1325 41.862C72.1325 41.862 72.1325 41.8314 72.1401 41.8237L72.825 41.0891C73.1426 40.7486 73.3148 40.2741 73.2995 39.7958C73.2842 39.3061 73.0737 38.8431 72.7255 38.5256C72.5342 38.3496 72.3812 38.1659 72.2626 37.9708C72.2587 37.9631 72.2549 37.9516 72.2587 37.944L72.3467 37.5231C72.3467 37.5231 72.3544 37.504 72.3659 37.4963L76.215 35.6139C79.5131 34.3398 77.1371 31.3477 77.1371 31.3477L71.6006 23.9747L71.7613 21.1855C71.7575 9.63049 57.2985 0.0268555 45.7474 0.0268555H45.7206C45.4336 0.0268555 45.1467 0.122509 44.9515 0.329121C44.6454 0.654344 44.6072 1.13261 44.8253 1.4961L51.9648 13.2959C51.9648 13.2959 51.9725 13.3189 51.9648 13.3304L45.4642 25.0958C45.38 25.245 45.3265 25.4134 45.3303 25.5817C45.3494 26.1556 45.8009 26.5497 46.306 26.5497H50.7443C50.7443 26.5497 50.7673 26.5574 50.7749 26.5689L59.2422 40.936C59.2422 40.936 59.2498 40.959 59.2422 40.9705L50.9241 55.6399C50.9241 55.6399 50.905 55.6591 50.8935 55.6591L36.1782 55.6744C35.6234 55.6744 35.1719 56.1258 35.1719 56.6806V62.6265C35.1719 62.8828 35.2752 63.1315 35.455 63.3114C35.6387 63.495 35.8835 63.5945 36.1399 63.5945L57.5893 63.5792C58.0943 63.5792 58.5229 63.2042 58.5879 62.703L59.7893 53.4322C59.7893 53.4322 59.7893 53.4322 59.7893 53.4284C59.8429 53.2295 60.2102 52.1352 61.9205 52.1352H65.9265C65.9265 52.1352 65.9341 52.1352 65.9379 52.1352H67.3536L67.3574 52.139Z" fill="white"/>
</svg>
