
<svg width="286" height="309" viewBox="0 0 286 309" fill="none" xmlns="http://www.w3.org/2000/svg">
<g clip-path="url(#clip0_135_526)">
<path d="M83.5754 121.596L64.5767 69.4182L74.4505 71.4044L106.908 110.03L83.5754 121.596Z" fill="#0C648D"/>
<path d="M131.915 80.387L13.9481 181.343C8.40246 186.092 9.55225 194.966 16.1255 198.147L240.097 306.397C247.408 309.931 255.695 303.847 254.515 295.813L215.309 29.4371C214.15 21.5583 204.767 18.046 198.714 23.2184L131.916 80.3815" fill="#07AAF6"/>
<path d="M224.001 269.463L98.7434 108.803L65.068 70.1967C62.7544 67.2994 65.4847 63.1383 69.0588 64.1045L131.286 80.9611L224.001 269.463Z" fill="#0C648D"/>
</g>
<defs>
<clipPath id="clip0_135_526">
<rect width="280.474" height="255.067" fill="white" transform="translate(285.222 29.8384) rotate(96.51)"/>
</clipPath>
</defs>
</svg>


